<svg width="100" height="100" viewBox="0 0 100 100" fill="none" xmlns="http://www.w3.org/2000/svg">
<path d="M85.8325 63.5114C82.4983 65.7693 75.7815 68.6516 65.4405 66.0575C64.4741 65.8173 63.5076 65.5291 62.5895 65.2889C56.066 62.5026 49.4459 59.4281 46.7398 57.4585C54.2298 58.6115 65.4405 59.7644 83.513 56.8821C83.513 56.8821 85.2526 59.5722 85.8325 63.5114ZM15.6203 65.3369L12.4794 66.4418C12.4794 66.4418 16.0552 70.7173 16.7318 72.1104L17.6016 74.5123C17.6016 74.5123 29.0056 68.2673 45.6284 69.2281C49.3976 69.4202 52.6835 70.5251 52.6835 70.5251C52.6835 70.5251 45.9184 66.1536 44.5653 65.7212C38.0418 64.0879 31.8566 63.6555 28.1841 63.5114C21.9022 65.1928 16.5385 68.0271 16.5385 68.0271C16.5385 68.0271 16.1036 66.682 15.6203 65.3369Z" fill="#DD291E"/>
<path d="M88.3936 61.3977C88.3936 61.3977 87.5721 62.3585 85.8325 63.5114C82.4983 65.7693 75.7815 68.6516 65.4405 66.0575C64.4741 65.8173 63.5077 65.5291 62.5895 65.2889C53.1667 62.5507 47.5613 58.9958 34.9009 57.4105C26.2996 57.6026 17.6499 58.6115 12.866 60.485C12.866 60.485 14.1707 61.8301 14.5573 62.3585C14.7506 62.7428 15.1855 64.0399 15.6204 65.2889C16.1036 66.634 16.5385 67.931 16.5385 67.931C16.5385 67.931 21.9022 65.0967 28.1841 63.4154C31.1318 62.6467 34.2727 62.1183 37.1721 62.2624C46.8365 62.8869 54.6164 67.8349 63.266 71.8702C69.258 73.5516 83.8996 74.8006 88.007 72.9271C88.007 73.0231 88.8285 69.0839 88.3936 61.3977Z" fill="#FFC82E"/>
<path d="M38.1868 39.5881C34.2727 39.5881 32.0016 45.0165 32.0016 48.8596C32.0016 50.4448 32.3882 51.1654 33.258 51.1654C35.4808 51.1654 39.2016 44.8243 39.9747 40.8851L40.168 39.8763C39.5882 39.7322 38.96 39.5881 38.1868 39.5881ZM42.7774 55.9213H37.0754C37.317 54.4321 37.8002 52.7507 38.6217 50.589H38.5251C36.7372 53.5674 34.1761 56.4497 30.9385 56.4497C27.6526 56.4497 25.9613 54.336 25.9613 49.8684C25.9613 42.038 30.0687 34.8802 39.2016 34.8802C39.6848 34.8802 40.2163 34.9283 40.9895 35.0244L41.9076 30.2205C40.9895 30.0764 39.5882 29.8842 38.3801 29.7881L39.2016 25.897C42.1009 25.6087 45.0969 25.4166 48.5278 25.5127L42.7774 55.9213ZM77.1345 55.9213H71.4808L73.5103 43.239C73.9452 41.1733 73.6553 40.3567 72.6889 40.3567C70.756 40.3567 67.2768 45.4008 66.5036 50.3968L65.5855 55.9213H59.9318L62.058 43.239C62.4929 41.1733 62.2029 40.3567 61.2365 40.3567C59.3036 40.3567 55.9211 45.3527 55.0029 50.2527L53.8915 55.9213H48.2378L51.2821 39.9724V39.8282C50.364 39.6841 48.9627 39.492 47.7546 39.3959L48.5761 35.5047C51.5721 35.1685 54.4231 35.0244 57.564 35.1204C57.2258 36.7538 56.6942 38.6273 55.9694 40.4528H56.066C57.9506 37.2341 59.9801 34.7842 63.6526 34.7842C66.117 34.7842 67.7117 36.0812 67.7117 38.8675C67.7117 39.3479 67.5667 39.9243 67.3734 40.741L67.4217 40.789C69.3546 37.3302 71.6741 34.7842 75.3466 34.7842C79.4056 34.7842 80.2271 37.7145 79.454 41.5577L77.1345 55.9213Z" fill="#002878"/>
</svg>
