<svg width="100" height="100" viewBox="0 0 100 100" fill="none" xmlns="http://www.w3.org/2000/svg">
<g clip-path="url(#clip0_1_205)">
<path d="M78.8022 50.6793C78.8022 48.5598 78.6116 46.5217 78.2577 44.5652H50.0544V56.1413H66.1706C65.4628 59.8641 63.3394 63.0163 60.1543 65.1359V72.663H69.873C75.5354 67.4457 78.8022 59.7826 78.8022 50.6793Z" fill="#4285F4"/>
<path d="M50.0544 79.8913C58.1397 79.8913 64.9183 77.2283 69.873 72.663L60.1543 65.1359C57.4864 66.9294 54.0835 68.0163 50.0544 68.0163C42.2686 68.0163 35.6534 62.7717 33.2849 55.7065H23.3212V63.4239C28.2486 73.1794 38.3485 79.8913 50.0544 79.8913Z" fill="#34A853"/>
<path d="M33.2849 55.6793C32.686 53.8859 32.3321 51.9837 32.3321 50C32.3321 48.0163 32.686 46.1141 33.2849 44.3206V36.6033H23.3212C21.2795 40.625 20.1089 45.163 20.1089 50C20.1089 54.837 21.2795 59.375 23.3212 63.3967L31.0799 57.3641L33.2849 55.6793Z" fill="#FBBC05"/>
<path d="M50.0544 32.0109C54.4646 32.0109 58.3848 33.5326 61.5154 36.4674L70.0907 27.9076C64.8911 23.0707 58.1397 20.1087 50.0544 20.1087C38.3485 20.1087 28.2486 26.8207 23.3212 36.6033L33.2849 44.3207C35.6534 37.2554 42.2686 32.0109 50.0544 32.0109Z" fill="#EA4335"/>
</g>
<defs>
<clipPath id="clip0_1_205">
<rect width="60" height="60" fill="white" transform="translate(20 20)"/>
</clipPath>
</defs>
</svg>
