<svg width="100" height="100" viewBox="0 0 100 100" fill="none" xmlns="http://www.w3.org/2000/svg">
<g clip-path="url(#clip0_1_205)">
<path fill-rule="evenodd" clip-rule="evenodd" d="M86.9893 65H12V35H87V65H86.9893Z" fill="#0058AB"/>
<path fill-rule="evenodd" clip-rule="evenodd" d="M13.5 50C13.5 57.3744 28.5872 63.5 49.5054 63.5C70.4235 63.5 85.5 57.3744 85.5 50C85.5 42.6256 70.4128 36.5 49.5054 36.5C28.5979 36.5 13.5 42.6256 13.5 50Z" fill="#FBD914"/>
<path d="M46.836 54.5035C47.0725 54.8393 47.3305 55.1541 47.6314 55.4374H39.5156C39.5156 55.1226 39.2038 54.4825 38.8598 53.9789C38.5159 53.4752 36.6562 50.7156 36.6562 50.7156V54.5035C36.6562 54.8183 36.6562 55.1226 36.8174 55.4374H30.056C30.2173 55.1226 30.2173 54.8183 30.2173 54.5035V45.5006C30.2173 45.1858 30.2173 44.8815 30.056 44.5668H36.8174C36.6562 44.8815 36.6562 45.1858 36.6562 45.5006V49.4355C36.6562 49.4355 38.8169 46.6863 39.3113 46.0462C39.6875 45.5636 40.1498 44.8815 40.1498 44.5668H47.2015C46.7177 44.8815 46.1803 45.4482 45.7395 45.9728C45.3525 46.4345 43.1596 49.0472 43.1596 49.0472C43.1596 49.0472 46.406 53.8845 46.836 54.5035ZM48.9644 45.5006V54.5035C48.9644 54.8183 48.9644 55.1226 48.8031 55.4374H61.853V52.4154C61.5305 52.5728 61.2187 52.5728 60.8963 52.5728H55.4033V51.1458H60.6813V48.8583H55.4033V47.4208H60.8963C61.2188 47.4208 61.5305 47.4208 61.853 47.5677V44.5563H48.8031C48.9644 44.8815 48.9644 45.1858 48.9644 45.5006ZM79.9337 54.5035C80.0411 54.8498 80.2239 55.1646 80.4604 55.4374H73.3872C73.4195 55.1226 73.3013 54.8183 73.1723 54.5035C73.1723 54.5035 73.0647 54.2517 72.9143 53.8845L72.8498 53.727H68.7757L68.7112 53.8949C68.7112 53.8949 68.5929 54.1992 68.4854 54.514C68.378 54.8288 68.2597 55.1331 68.3027 55.4478H62.7237C62.9516 55.1726 63.1233 54.8554 63.229 54.514L66.572 45.5111C66.6903 45.1963 66.8085 44.892 66.7655 44.5773H76.1928C76.1069 44.892 76.2788 45.1963 76.3971 45.5111C76.6766 46.1931 79.6971 53.8949 79.9337 54.5035ZM71.9575 51.4291L70.9686 48.9108C70.8826 48.68 70.8073 48.4386 70.7536 48.1973C70.7106 48.4404 70.6458 48.6792 70.5601 48.9108C70.5278 49.0158 70.1086 50.1175 69.6248 51.4291H71.9575ZM26.8526 44.5668H19.5C19.6613 44.8815 19.6613 45.1858 19.6613 45.5006V54.5035C19.6613 54.8183 19.6613 55.1226 19.5 55.4374H26.8526C26.6914 55.1226 26.6914 54.8183 26.6914 54.5035V45.5006C26.6914 45.1858 26.6914 44.8815 26.8526 44.5668ZM77.6762 45.4272C77.644 44.6612 78.2567 44.0211 79.0415 44.0001H79.1382C79.9337 43.9896 80.5894 44.5982 80.6001 45.3747V45.4272C80.6216 46.2141 79.9874 46.8752 79.1705 46.8962C78.3642 46.9172 77.687 46.2981 77.6655 45.5006C77.6762 45.4796 77.6762 45.4482 77.6762 45.4272ZM77.9665 45.4272C77.9665 46.0567 78.4932 46.5709 79.1382 46.5709C79.7832 46.5709 80.3099 46.0567 80.3099 45.4272C80.3099 44.7976 79.7831 44.2834 79.1382 44.2834C78.5147 44.2624 77.988 44.7346 77.9665 45.3432V45.4272ZM78.8479 46.2771H78.5899V44.5563H79.2457C79.5574 44.5668 79.7939 44.808 79.7939 45.1124C79.7939 45.3222 79.6756 45.5111 79.4821 45.616L79.8584 46.2771H79.5682L79.2242 45.6685H78.8479V46.2771ZM78.8479 45.4272H79.2027C79.3747 45.4377 79.5252 45.3117 79.5252 45.1438C79.5252 44.976 79.4069 44.829 79.2349 44.829H78.8479V45.4272Z" fill="#0058A3"/>
</g>
<defs>
<clipPath id="clip0_1_205">
<rect width="75" height="30" fill="white" transform="translate(12 35)"/>
</clipPath>
</defs>
</svg>
