<svg width="100" height="100" viewBox="0 0 100 100" fill="none" xmlns="http://www.w3.org/2000/svg">
<rect width="100" height="100" fill="#0050AA"/>
<g clip-path="url(#clip0_1_205)">
<path d="M11.6786 11.6786H88.3227V88.3227H11.6786V11.6786Z" fill="#0050AA"/>
<path d="M50 16.005C31.2254 16.005 16.005 31.2254 16.005 50C16.005 68.7746 31.2254 83.995 50 83.995C68.7694 83.995 83.9872 68.7824 83.995 50.0143C83.995 31.2371 68.7759 16.0128 50 16.005Z" fill="#FFF000"/>
<path d="M47.8901 50.9568L41.888 44.9547L34.9694 51.8863V54.2133L36.7127 52.4635L41.5422 57.306L39.7586 59.0831L40.9182 60.2492L50.5772 50.5772V48.258L47.8914 50.9581L47.8901 50.9568Z" fill="#E60A14"/>
<path d="M19.8712 43.6924H30.5611V45.9986H28.7775V53.4593L34.9694 50.0143V56.3284H19.8712V54.0092H21.6613V45.9986H19.8712V43.6924ZM64.9422 43.6924V45.9986H66.7323V54.0092H64.9422V56.3284H80.0534V50.0143L73.8537 53.4593V45.9986H75.6438V43.6924H64.9422Z" fill="#0050AA"/>
<path d="M41.0066 36.5099C43.1074 36.5099 44.8117 38.2129 44.8117 40.315C44.8117 42.4171 43.1087 44.1201 41.0066 44.1201C38.9058 44.1201 37.2015 42.4171 37.2015 40.315C37.2015 40.3098 37.2015 40.3059 37.2015 40.3007V40.302C37.2015 38.2077 38.8993 36.5099 40.9936 36.5099C40.9988 36.5099 41.0014 36.5099 41.0066 36.5099Z" fill="#E60A14"/>
<path d="M50 13.7131C49.9974 13.7131 49.9961 13.7131 49.9935 13.7131C29.9488 13.7131 13.7001 29.9618 13.7001 50.0065C13.7001 70.0512 29.9488 86.2999 49.9935 86.2999C70.0356 86.2999 86.283 70.0551 86.2869 50.013C86.283 29.9709 70.0395 13.7235 50 13.7131ZM50 84.0015C31.2254 84.0015 16.005 68.7811 16.005 50.0065C16.005 31.2319 31.2254 16.0115 50 16.0115C68.7746 16.0115 83.995 31.2319 83.995 50.0065C83.995 50.0117 83.995 50.0156 83.995 50.0208V50.0195C83.9794 68.7837 68.7668 83.9898 50.0013 83.9937L50 84.0015Z" fill="#E60A14"/>
<path d="M58.9869 43.6924H48.8131V45.9986H50.5967V54.0092H48.7923V56.3284H58.9661C66.5217 56.3284 66.6166 43.6924 58.9869 43.6924Z" fill="#0050AA"/>
<path d="M57.5556 52.3738H57.0473V47.6262H57.475C59.7071 47.6262 59.7058 52.3738 57.5556 52.3738Z" fill="#FFF000"/>
</g>
<defs>
<clipPath id="clip0_1_205">
<rect width="78" height="78" fill="white" transform="translate(11 11)"/>
</clipPath>
</defs>
</svg>
