<svg width="100" height="100" viewBox="0 0 100 100" fill="none" xmlns="http://www.w3.org/2000/svg">
<rect width="100" height="100" fill="#002559"/>
<g clip-path="url(#clip0_1_205)">
<mask id="mask0_1_205" style="mask-type:alpha" maskUnits="userSpaceOnUse" x="11" y="44" width="15" height="15">
<path fill-rule="evenodd" clip-rule="evenodd" d="M11 44.6658H25.6454V58.547H11V44.6658Z" fill="white"/>
</mask>
<g mask="url(#mask0_1_205)">
<path fill-rule="evenodd" clip-rule="evenodd" d="M18.3226 45.1615C20.1978 44.3974 23.1659 44.2299 24.7591 46.7906C26.4595 49.5229 25.4403 52.2135 23.9886 54.1494C22.5573 56.0584 20.4312 57.5686 18.851 58.3916C18.6636 58.4892 18.5277 58.5501 18.3089 58.5469C18.1003 58.5441 17.982 58.4892 17.7943 58.3916C16.2142 57.5686 14.088 56.0584 12.6567 54.1494C11.2051 52.2135 10.1861 49.5229 11.8863 46.7906C13.4792 44.2301 16.4473 44.3976 18.3226 45.1615ZM18.3226 55.1581C19.2438 54.6143 20.2117 53.9783 21.2725 52.7562C22.6197 51.2044 23.1189 49.6588 22.2271 48.4183C21.5769 47.5136 20.1075 47.3613 18.9314 48.1864C18.6812 48.3621 18.4915 48.4553 18.3226 48.4404C18.1538 48.4553 17.9642 48.3621 17.7139 48.1864C16.5379 47.3613 15.0684 47.5136 14.4182 48.4183C13.5266 49.6588 14.0258 51.2044 15.3729 52.7562C16.4337 53.9783 17.4017 54.6143 18.3226 55.1581Z" fill="#F9B601"/>
</g>
<path fill-rule="evenodd" clip-rule="evenodd" d="M32.99 44.7856C33.3816 44.6137 33.8291 44.5265 34.3314 44.5265C34.925 44.5265 35.4874 44.6451 36.0194 44.8811C36.5515 45.1171 36.9904 45.4475 37.3385 45.8703L37.3842 45.926L37.4402 45.8811C37.5786 45.7696 37.68 45.6886 37.7417 45.6407C37.8183 45.5771 37.8885 45.5205 37.9497 45.4729C38.7399 44.8431 39.6831 44.5265 40.7825 44.5265C41.4404 44.5265 42.0434 44.63 42.5914 44.8351C43.1393 45.0242 43.6109 45.3085 44.0047 45.6854C44.3985 46.0464 44.7023 46.4864 44.9148 47.0054C45.1266 47.5077 45.2334 48.0666 45.2334 48.6826V55.9701C45.2334 56.767 45.1021 57.3137 44.8554 57.6294C44.6117 57.9406 44.2048 58.1056 43.6135 58.1056C43.09 58.1056 42.6871 57.9286 42.3937 57.58C42.1145 57.2293 41.9705 56.729 41.9705 56.066V49.26C41.9705 48.7463 41.8183 48.3321 41.507 48.0267C41.2112 47.7199 40.8046 47.5718 40.2955 47.5718C39.7549 47.5718 39.3235 47.7293 39.0122 48.0521C38.7174 48.3747 38.5736 48.8213 38.5736 49.3802V56.2102C38.5736 56.8236 38.43 57.2918 38.1512 57.6269C37.8742 57.9437 37.4863 58.1056 36.9769 58.1056C36.4512 58.1056 36.0465 57.9426 35.7538 57.6246C35.4761 57.2894 35.3335 56.8293 35.3335 56.2345V49.2117C35.3335 48.7009 35.198 48.2939 34.9175 48.0031C34.6368 47.7126 34.2446 47.5718 33.7512 47.5718C33.2237 47.5718 32.7931 47.7469 32.4678 48.1004C32.1576 48.4392 32.0065 48.9012 32.0065 49.4763V56.2102C32.0065 57.4925 31.4739 58.1056 30.4097 58.1056C29.3136 58.1056 28.7666 57.4834 28.7666 56.1862V46.3978C28.7666 45.7998 28.9038 45.3552 29.1659 45.0537C29.4278 44.7373 29.8005 44.5746 30.2937 44.5746C30.6734 44.5746 30.9566 44.67 31.14 44.8017C31.3251 44.9344 31.4971 45.1604 31.6653 45.54L31.7061 45.6318L31.7806 45.5663C32.1932 45.2021 32.5974 44.9422 32.99 44.7856Z" fill="#FEFEFE"/>
<path fill-rule="evenodd" clip-rule="evenodd" d="M49.5774 57.6073C49.2977 57.9387 48.9352 58.1056 48.4832 58.1056C48.0455 58.1056 47.6821 57.947 47.3873 57.6293C47.107 57.3115 46.9666 56.9113 46.9666 56.4211V42.3039C46.9666 41.0542 47.4845 40.4527 48.5273 40.4527C49.5103 40.4527 50 41.0295 50 42.2321V56.3735C50 56.8638 49.8586 57.2733 49.5774 57.6073Z" fill="#FEFEFE"/>
<path fill-rule="evenodd" clip-rule="evenodd" d="M62.377 44.7856C62.8599 44.613 63.3816 44.5265 63.9424 44.5265C64.625 44.5265 65.2463 44.6454 65.8049 44.8804C66.3777 45.0997 66.8608 45.4367 67.2518 45.8899C67.5972 46.264 67.838 46.6942 67.9728 47.1761C68.123 47.6443 68.2 48.243 68.2 48.9717V56.292C68.2 56.8338 68.0435 57.2694 67.736 57.6039C67.4436 57.9373 67.0643 58.1056 66.5917 58.1056C66.134 58.1056 65.7461 57.946 65.4219 57.6251C65.1138 57.3054 64.9603 56.911 64.9603 56.4355V49.8093C64.9603 49.331 64.9449 48.9983 64.913 48.815C64.8807 48.6133 64.8081 48.4211 64.6956 48.2378C64.564 48.0153 64.3671 47.8467 64.1096 47.7297C63.8691 47.5974 63.5974 47.5322 63.2972 47.5322C62.9798 47.5322 62.6851 47.5978 62.4136 47.7308C62.143 47.8629 61.9171 48.0471 61.7408 48.2806C61.6281 48.448 61.5458 48.6363 61.4976 48.8365C61.4662 49.0307 61.4498 49.3568 61.4498 49.8093V56.3398C61.4498 56.9173 61.3074 57.3504 61.0325 57.6511C60.7577 57.951 60.3647 58.1056 59.8417 58.1056C59.3682 58.1056 58.9803 57.9449 58.6724 57.6258C58.3807 57.2913 58.2333 56.865 58.2333 56.3398V46.2208C58.2333 45.6918 58.368 45.29 58.6276 45.0052C58.8877 44.7207 59.2504 44.5743 59.7263 44.5743C60.2361 44.5743 60.5767 44.7597 60.8048 45.0309C60.982 45.2413 61.1675 45.5736 61.1675 45.5736L61.2298 45.5091C61.528 45.1994 61.9097 44.9576 62.377 44.7856Z" fill="#FEFEFE"/>
<path fill-rule="evenodd" clip-rule="evenodd" d="M86.9238 44.5265C87.557 44.5265 88.0583 44.6899 88.4363 45.0102C88.8114 45.3287 89 45.7527 89 46.2892C89 46.735 88.871 47.0894 88.6185 47.3593C88.3675 47.6281 88.0257 47.7655 87.5861 47.7655H87.4478L86.4551 47.67H86.3097C85.7495 47.67 85.3432 47.8978 85.1078 48.3561C85.0092 48.555 84.944 48.7698 84.9114 49.0006C84.8795 49.2099 84.8632 49.5478 84.8632 50.0149V56.5102C84.8632 57.0039 84.7185 57.3891 84.4356 57.6746C84.1534 57.9594 83.7648 58.1056 83.2599 58.1056C82.7217 58.1056 82.3182 57.9592 82.0374 57.6753C81.771 57.3913 81.6333 56.9833 81.6333 56.4388V46.1699C81.6333 45.6586 81.7717 45.2646 82.0389 44.9796C82.3062 44.6799 82.6707 44.5265 83.1415 44.5265C83.5379 44.5265 83.9187 44.5833 84.1881 44.8247C84.5058 45.1091 84.5909 45.5949 84.5909 45.5949L84.6824 45.5088C85.3801 44.8509 86.1268 44.5265 86.9238 44.5265Z" fill="#FEFEFE"/>
<mask id="mask1_1_205" style="mask-type:alpha" maskUnits="userSpaceOnUse" x="52" y="40" width="4" height="4">
<path fill-rule="evenodd" clip-rule="evenodd" d="M52.3608 40.2117H55.6067V43.6025H52.3608V40.2117Z" fill="white"/>
</mask>
<g mask="url(#mask1_1_205)">
<path fill-rule="evenodd" clip-rule="evenodd" d="M52.8388 40.6903C53.1592 40.371 53.543 40.2117 53.9954 40.2117C54.4632 40.2117 54.8471 40.3721 55.1508 40.6896C55.4535 40.9904 55.6067 41.3826 55.6067 41.8719C55.6067 42.3597 55.4468 42.7686 55.127 43.1024C54.8222 43.436 54.446 43.6026 53.9954 43.6026C53.5284 43.6026 53.1378 43.4367 52.818 43.1024C52.5129 42.7688 52.3608 42.3608 52.3608 41.8719C52.3608 41.4005 52.5196 41.0083 52.8388 40.6903Z" fill="#FEFEFE"/>
</g>
<path fill-rule="evenodd" clip-rule="evenodd" d="M55.2105 57.5993C54.9311 57.936 54.5684 58.1056 54.1164 58.1056C53.6788 58.1056 53.3156 57.9445 53.0207 57.6216C52.7406 57.2987 52.6 56.892 52.6 56.3937V46.4078C52.6 45.1378 53.1178 44.5265 54.1605 44.5265C55.1437 44.5265 55.6333 45.1127 55.6333 46.3353V56.3454C55.6333 56.8436 55.4919 57.2598 55.2105 57.5993Z" fill="#FEFEFE"/>
<path fill-rule="evenodd" clip-rule="evenodd" d="M75.3652 57.8202C74.9104 58.0078 74.3791 58.1028 73.771 58.1028C72.4184 58.1028 71.3729 57.7226 70.6248 56.9703C69.8774 56.2183 69.5 55.1741 69.5 53.8278C69.5 52.3397 69.9654 51.2517 70.8878 50.5479C71.8294 49.8243 73.3187 49.456 75.3685 49.456H75.8412H76.1338H76.3587C76.4326 49.456 76.474 49.397 76.4936 49.3393C76.5127 49.2823 76.5204 49.2054 76.5204 49.1147C76.5204 48.5276 76.3917 48.087 76.116 47.8094C75.8414 47.5161 75.407 47.379 74.8287 47.379C74.0752 47.379 73.2893 47.683 72.4709 48.2815C72.1254 48.5228 71.8904 48.6711 71.7616 48.732C71.6385 48.7909 71.4839 48.8215 71.2956 48.8215C70.9075 48.8215 70.5965 48.6917 70.3566 48.4354C70.1319 48.1637 70.0175 47.8151 70.0175 47.3836C70.0175 47.0194 70.1439 46.6683 70.4058 46.3268C70.6843 45.9818 71.0439 45.6756 71.4882 45.4066C71.9471 45.1376 72.4734 44.9238 73.0681 44.765C73.6626 44.6061 74.2793 44.5265 74.9184 44.5265C75.5878 44.5265 76.1962 44.6141 76.7436 44.7879C77.3067 44.9623 77.7871 45.2075 78.1839 45.5217C78.5959 45.8365 78.9115 46.2132 79.131 46.6509C79.3497 47.0714 79.4596 47.5399 79.4596 48.057L79.4667 56.3727C79.4667 56.8904 79.3213 57.3065 79.0359 57.6261C78.7643 57.9447 78.412 58.1056 77.9733 58.1056C77.5479 58.1056 77.1878 57.9532 76.8869 57.6464C76.7025 57.4496 76.5776 57.2232 76.5123 56.9655L76.4845 56.9996C76.1927 57.358 75.8202 57.632 75.3652 57.8202ZM74.5554 52.1884C73.9625 52.2209 73.4949 52.3681 73.1644 52.637C72.8446 52.9103 72.6866 53.2949 72.6866 53.7796C72.6866 54.2299 72.8211 54.59 73.094 54.8479C73.3812 55.1034 73.7751 55.227 74.2658 55.227C74.9088 55.227 75.4368 55.0469 75.8427 54.6797C76.2497 54.3119 76.453 53.825 76.453 53.2269V52.5292C76.453 52.4223 76.4508 52.3422 76.4472 52.2888C76.4448 52.2577 76.4416 52.2344 76.4384 52.2186C76.4309 52.1845 76.4157 52.1648 76.4 52.1536C76.3786 52.1357 76.3531 52.128 76.3332 52.1236C76.3107 52.119 76.2818 52.116 76.2458 52.116L76.064 52.1163L75.702 52.1403L75.2085 52.1641L74.5554 52.1884Z" fill="#FEFEFE"/>
</g>
<defs>
<clipPath id="clip0_1_205">
<rect width="78" height="19" fill="white" transform="translate(11 40)"/>
</clipPath>
</defs>
</svg>
