<svg width="100" height="100" viewBox="0 0 100 100" fill="none" xmlns="http://www.w3.org/2000/svg">
<path d="M20.2415 20.2036H34.5562C39.2029 20.1727 42.2751 20.9141 45.6644 23.9902C47.7424 25.8775 48.7144 27.3358 49.6542 29.9821C50.6994 27.3208 51.7223 25.8694 53.8779 23.9902C57.2617 21.0392 60.4012 20.3296 64.7509 20.2036H79.0343V34.5187C79.2537 39.1024 78.4806 42.5654 75.2318 45.9702C73.4019 47.8892 72.0066 48.7742 69.4906 49.615C72.0147 50.5046 73.4062 51.4148 75.2318 53.3703C78.4172 56.7789 79.1753 59.8314 79.0338 64.7126V78.9488H64.7509C60.2452 78.9959 57.1327 78.1963 53.7215 75.1939C51.6576 73.3781 50.6767 71.9884 49.6537 69.4368C48.7924 71.9652 47.8912 73.3644 45.946 75.1939C42.5391 78.399 39.2029 79.2308 34.5562 78.9488H20.2415V64.7126C20.1164 60.3795 21.0077 57.0729 24.0436 53.684C25.9244 51.5833 27.3755 50.5959 30.0196 49.6154C27.3836 48.6854 25.9279 47.7221 24.0436 45.6578C20.9478 42.268 20.2728 39.0248 20.2415 34.5191V20.2036Z" fill="#F16426"/>
<path d="M26.3363 26.3146H35.6014C40.1388 26.3583 42.8266 26.7466 46.0437 29.5437C47.8427 31.107 48.7062 32.2932 49.6362 34.4878C50.6355 32.2829 51.5303 31.095 53.3885 29.5437C56.615 26.8499 59.5544 26.2126 63.6706 26.3146H72.9494V35.6226C72.8628 39.2292 72.7253 41.86 70.5795 44.9306C68.9052 47.3265 67.4507 48.5115 64.7616 49.6574C67.4443 50.7742 68.9035 51.9381 70.5791 54.3122C72.7557 57.3943 72.9357 59.9544 72.9494 63.6931V72.9573H63.671C59.41 73.1176 56.636 72.4152 53.4177 69.7287C51.5535 68.1722 50.6493 66.9898 49.6366 64.7833C48.723 66.9774 47.865 68.1662 46.0733 69.7287C42.8541 72.5343 39.9939 72.8986 35.6018 72.9282H26.3663V63.6931C26.3225 59.6635 26.8192 57.4723 28.9834 54.3842C30.6114 52.0615 31.9639 50.9075 34.5103 49.6574C31.975 48.4695 30.6217 47.3471 28.9834 45.0763C26.7365 41.9616 26.2788 39.3458 26.3221 35.5939L26.3363 26.3146Z" fill="white"/>
<path d="M45.1108 56.4155C47.1472 60.9984 47.4189 60.9302 47.9619 60.9984C49.0482 61.1334 50.2704 57.2645 51.0165 55.7029C51.8316 53.9715 52.9175 50.9846 53.9705 50.9846C55.1584 50.9846 54.4796 56.8226 54.3433 57.3999C54.1059 58.4862 52.5786 58.6898 52.5786 59.8786C52.5786 62.0504 57.2291 61.9146 58.621 61.9146C60.1141 61.9146 64.7651 62.0166 64.7651 59.7419C64.7651 58.215 62.7282 58.7584 62.6266 56.2797C62.4908 53.123 62.2872 49.3887 62.2872 48.88C62.2872 47.3523 62.5251 43.3462 62.7968 42.3961C63.1353 41.2421 64.6626 40.9704 64.6626 39.6123C64.6626 37.4739 61.2686 37.3719 59.7751 37.3719C55.2942 37.3719 55.2604 38.3901 53.5291 41.5815C52.3069 43.8215 50.915 47.9291 49.8629 47.6912C48.369 47.3523 46.2648 41.7855 45.0769 39.7816C44.0583 38.0511 44.1264 37.3719 40.1547 37.3719C37.4385 37.3719 34.2819 37.8476 34.2819 39.7816C34.2819 41.1744 36.2168 41.4118 36.5562 42.1245C36.9294 42.9057 37.0657 43.9573 37.0657 45.9946C37.0657 50.9165 36.7597 54.074 36.4876 56.9246C36.2168 59.7089 34.1803 58.1134 34.1803 60.0483C34.1803 61.813 37.2688 61.9146 38.4572 61.9146C39.7814 61.9146 43.4133 61.8469 43.4133 59.912C43.4133 58.0787 41.2406 59.7762 41.2406 56.1443C41.2406 55.024 40.9012 50.5432 41.9533 50.5432C42.5644 50.5432 42.938 51.5618 43.1412 52.0028L45.1108 56.4155Z" fill="#282526"/>
</svg>
