<svg width="100" height="100" viewBox="0 0 100 100" fill="none" xmlns="http://www.w3.org/2000/svg">
<rect width="100" height="100" fill="black"/>
<path fill-rule="evenodd" clip-rule="evenodd" d="M54.8642 20.039L54.8412 33.1348L54.818 46.2306L53.7406 43.1905C53.7402 43.1895 53.7389 43.1856 53.7385 43.1845L52.3462 72.3393C53.7151 76.2049 54.4485 78.2686 54.4568 78.2768C54.4675 78.2876 55.2476 78.3347 56.1903 78.3815C59.0464 78.5232 62.5857 78.8269 65.2707 79.1605C65.8923 79.2377 66.4273 79.2773 66.4595 79.2484C66.4917 79.2196 66.5093 65.8856 66.4985 49.6175L66.4789 20.039H54.8642ZM33.8563 20V49.6084C33.8563 65.8931 33.8723 79.2329 33.8918 79.2524C33.9113 79.2719 34.9198 79.1767 36.1329 79.0409C37.346 78.905 39.0225 78.7361 39.8586 78.6655C41.1408 78.5572 44.969 78.3111 45.4123 78.3084C45.5413 78.3076 45.5496 77.6423 45.5682 65.7675L45.588 53.2275L46.5143 55.8482C46.6574 56.2533 46.7023 56.3797 46.8418 56.7744L48.2337 27.6268C47.9388 26.793 48.0934 27.2307 47.7554 26.2751C46.6181 23.0596 45.6531 20.3323 45.6108 20.2144L45.5338 20H33.8563Z" fill="#B1060F" stroke="black" stroke-width="0.310123"/>
<path fill-rule="evenodd" clip-rule="evenodd" d="M33.8563 20V36.6201L45.5644 67.6773C45.5656 66.9656 45.567 66.581 45.5683 65.7675L45.588 53.2275L46.5143 55.8482C51.6703 70.4379 54.4405 78.2605 54.4568 78.2768C54.4675 78.2876 55.2476 78.3347 56.1903 78.3815C59.0464 78.5232 62.5857 78.8269 65.2707 79.1605C65.8923 79.2377 66.4273 79.2773 66.4595 79.2484C66.4817 79.2286 66.4961 72.6907 66.5 63.4674L54.8468 29.9644L54.8412 33.1348L54.818 46.2306L53.7406 43.1905C52.6878 40.22 51.9849 38.2334 47.7554 26.2751C46.6181 23.0596 45.6531 20.3323 45.6108 20.2144L45.5338 20H33.8563Z" fill="url(#paint0_radial_1_22)"/>
<path fill-rule="evenodd" clip-rule="evenodd" d="M33.8567 20L45.5881 53.2425V53.2274L46.5144 55.8482C51.6705 70.4379 54.4406 78.2605 54.4569 78.2768C54.4677 78.2876 55.2478 78.3346 56.1905 78.3814C59.0466 78.5231 62.5859 78.8268 65.2708 79.1604C65.8893 79.2373 66.4215 79.2768 66.4587 79.2487L54.8182 46.2245V46.2306L53.7407 43.1905C52.688 40.22 51.985 38.2334 47.7555 26.2751C46.6183 23.0596 45.6532 20.3323 45.6109 20.2144L45.5339 20L33.8567 20Z" fill="#E50914"/>
<path fill-rule="evenodd" clip-rule="evenodd" d="M54.8642 20.039L54.8412 33.1348L54.818 46.2306L53.7406 43.1905C53.7402 43.1895 53.7389 43.1856 53.7385 43.1845L52.3462 72.3393C53.7151 76.2049 54.4485 78.2686 54.4568 78.2768C54.4675 78.2876 55.2476 78.3347 56.1903 78.3815C59.0464 78.5232 62.5857 78.8269 65.2707 79.1605C65.8923 79.2377 66.4273 79.2773 66.4595 79.2484C66.4917 79.2196 66.5093 65.8856 66.4985 49.6175L66.4789 20.039H54.8642ZM33.8563 20V49.6084C33.8563 65.8931 33.8723 79.2329 33.8918 79.2524C33.9113 79.2719 34.9198 79.1767 36.1329 79.0409C37.346 78.905 39.0225 78.7361 39.8586 78.6655C41.1408 78.5572 44.969 78.3111 45.4123 78.3084C45.5413 78.3076 45.5496 77.6423 45.5682 65.7675L45.588 53.2275L46.5143 55.8482C46.6574 56.2533 46.7023 56.3797 46.8418 56.7744L48.2337 27.6268C47.9388 26.793 48.0934 27.2307 47.7554 26.2751C46.6181 23.0596 45.6531 20.3323 45.6108 20.2144L45.5338 20H33.8563Z" fill="#B1060F" stroke="black" stroke-width="0.310123"/>
<path fill-rule="evenodd" clip-rule="evenodd" d="M33.8563 20V36.6201L45.5644 67.6773C45.5656 66.9656 45.567 66.581 45.5683 65.7675L45.588 53.2275L46.5143 55.8482C51.6703 70.4379 54.4405 78.2605 54.4568 78.2768C54.4675 78.2876 55.2476 78.3347 56.1903 78.3815C59.0464 78.5232 62.5857 78.8269 65.2707 79.1605C65.8923 79.2377 66.4273 79.2773 66.4595 79.2484C66.4817 79.2286 66.4961 72.6907 66.5 63.4674L54.8468 29.9644L54.8412 33.1348L54.818 46.2306L53.7406 43.1905C52.6878 40.22 51.9849 38.2334 47.7554 26.2751C46.6181 23.0596 45.6531 20.3323 45.6108 20.2144L45.5338 20H33.8563Z" fill="url(#paint1_radial_1_22)"/>
<path fill-rule="evenodd" clip-rule="evenodd" d="M33.8567 20L45.5881 53.2425V53.2274L46.5144 55.8482C51.6705 70.4379 54.4406 78.2605 54.4569 78.2768C54.4677 78.2876 55.2478 78.3346 56.1905 78.3814C59.0466 78.5231 62.5859 78.8268 65.2708 79.1604C65.8893 79.2373 66.4215 79.2768 66.4587 79.2487L54.8182 46.2245V46.2306L53.7407 43.1905C52.688 40.22 51.985 38.2334 47.7555 26.2751C46.6183 23.0596 45.6532 20.3323 45.6109 20.2144L45.5339 20L33.8567 20Z" fill="#E50914"/>
<defs>
<radialGradient id="paint0_radial_1_22" cx="0" cy="0" r="1" gradientUnits="userSpaceOnUse" gradientTransform="translate(49.636 49.2844) rotate(-19.0977) scale(7.39887 271.014)">
<stop/>
<stop offset="1" stop-opacity="0"/>
</radialGradient>
<radialGradient id="paint1_radial_1_22" cx="0" cy="0" r="1" gradientUnits="userSpaceOnUse" gradientTransform="translate(49.636 49.2844) rotate(-19.0977) scale(7.39887 271.014)">
<stop/>
<stop offset="1" stop-opacity="0"/>
</radialGradient>
</defs>
</svg>
