<svg width="100" height="100" viewBox="0 0 100 100" fill="none" xmlns="http://www.w3.org/2000/svg">
<g clip-path="url(#clip0_1_205)">
<path fill-rule="evenodd" clip-rule="evenodd" d="M52.816 34.5558L52.7678 78.9639L40.9224 75.0943V22.8968L56.0424 26.9121C65.7208 29.5249 71.6438 34.6037 71.5474 43.5049C71.4512 53.8576 66.684 58.0174 57.3905 55.3084V34.8937C57.3905 32.4265 52.816 32.282 52.816 34.5558Z" fill="#DE0029"/>
<path fill-rule="evenodd" clip-rule="evenodd" d="M35.4808 66.4824L29.8949 68.3695C26.2829 69.6275 23.2016 66.6768 26.5241 65.4667L29.2205 64.4998L19.0601 61.258C15.9299 62.3227 12.9924 64.5963 13.1855 67.7893C13.3781 71.0301 20.7453 71.8045 26.4278 72.7237C31.7244 73.594 36.5397 73.1103 40.9222 71.5623V68.2241L35.4808 66.4824ZM52.8641 78.9639L63.2171 75.3354L52.7678 71.998V78.7216L52.8641 78.9639Z" fill="#F3C202"/>
<path fill-rule="evenodd" clip-rule="evenodd" d="M80.4079 69.2407L80.6004 69.192C85.1269 67.5961 87.053 65.37 86.5718 63.2906C85.8013 59.8078 80.2636 57.9207 71.7402 57.2917C65.6249 56.8566 59.6059 58.2107 53.7311 60.2423L52.768 60.5813L63.3137 63.8708L69.4771 61.7904C75.9298 60.5813 78.5305 62.7095 72.3184 64.6932L69.2364 65.7568L80.4079 69.2407ZM40.9224 53.8576L36.251 55.4534L40.9224 56.9048V53.8576Z" fill="#326DB3"/>
<path fill-rule="evenodd" clip-rule="evenodd" d="M63.2171 75.3354L80.4079 69.2407L69.2362 65.7568L52.7678 71.4167V71.998L63.2171 75.3354ZM40.9224 64.6443L35.481 66.4825L40.9224 68.2241V64.6443ZM52.7678 67.4993V60.5813L63.3135 63.8708L52.7678 67.4993ZM29.2206 64.4998L40.9222 60.2911V56.9048L36.251 55.4534L19.3009 61.2102C19.2527 61.2102 19.1565 61.258 19.0602 61.258L29.2206 64.4998Z" fill="#00AA9E"/>
</g>
<defs>
<clipPath id="clip0_1_205">
<rect width="74" height="57" fill="white" transform="translate(13 22)"/>
</clipPath>
</defs>
</svg>
