<svg width="100" height="100" viewBox="0 0 100 100" fill="none" xmlns="http://www.w3.org/2000/svg">
<g clip-path="url(#clip0_1_21)">
<mask id="mask0_1_21" style="mask-type:luminance" maskUnits="userSpaceOnUse" x="15" y="40" width="71" height="21">
<path d="M86 40H15V61H86V40Z" fill="white"/>
</mask>
<g mask="url(#mask0_1_21)">
<path d="M86 40H15V61H86V40Z" fill="#ED1C24"/>
</g>
<mask id="mask1_1_21" style="mask-type:luminance" maskUnits="userSpaceOnUse" x="15" y="40" width="71" height="21">
<path d="M86 40H15V61H86V40Z" fill="white"/>
</mask>
<g mask="url(#mask1_1_21)">
<mask id="mask2_1_21" style="mask-type:luminance" maskUnits="userSpaceOnUse" x="15" y="40" width="71" height="21">
<path d="M86 40H15V61H86V40Z" fill="white"/>
</mask>
<g mask="url(#mask2_1_21)">
<path d="M22.2724 52.8821V54.5395C22.2724 55.0724 22.2042 55.6964 21.9004 56.1448C21.6152 56.5738 21.1812 56.7493 20.6914 56.7493C20.2016 56.7493 19.7676 56.5738 19.4824 56.1448C19.1787 55.6964 19.1105 55.0724 19.1105 54.5395V46.532C19.1105 45.9666 19.1849 45.2516 19.594 44.8357C19.997 44.4262 20.6356 44.3417 21.1688 44.3417H23.4379C24.6097 44.3417 25.7442 44.6407 26.6184 45.4921C27.4678 46.324 27.8088 47.416 27.8088 48.6119C27.8088 49.7883 27.5112 50.8997 26.6928 51.7382C25.8682 52.5831 24.7771 52.8756 23.6487 52.8756H22.2724V52.8821ZM22.2724 49.8208H23.0411C23.3945 49.8208 23.8409 49.7688 24.1261 49.5153C24.3803 49.2878 24.4485 48.9564 24.4485 48.6184C24.4485 48.2934 24.3865 47.9489 24.1447 47.7344C23.8657 47.4875 23.3945 47.442 23.0473 47.442H22.2786V49.8208H22.2724Z" fill="white"/>
</g>
<mask id="mask3_1_21" style="mask-type:luminance" maskUnits="userSpaceOnUse" x="15" y="40" width="71" height="21">
<path d="M86 40H15V61H86V40Z" fill="white"/>
</mask>
<g mask="url(#mask3_1_21)">
<path d="M31.7456 53.493H32.4028C32.905 53.493 33.5002 53.558 33.928 53.8505C34.3309 54.1235 34.5107 54.546 34.5107 55.0464C34.5107 55.5469 34.3309 55.9759 33.928 56.2488C33.5002 56.5413 32.905 56.6063 32.4028 56.6063H30.6173C30.1151 56.6063 29.4517 56.5413 29.0611 56.1708C28.6705 55.7939 28.5899 55.1439 28.5899 54.611V46.402C28.5899 45.8691 28.6581 45.2516 28.9557 44.7967C29.2409 44.3677 29.6749 44.1922 30.1647 44.1922C30.6545 44.1922 31.0885 44.3742 31.3736 44.7967C31.6712 45.2451 31.7394 45.8626 31.7394 46.402V53.493H31.7456Z" fill="white"/>
</g>
<mask id="mask4_1_21" style="mask-type:luminance" maskUnits="userSpaceOnUse" x="15" y="40" width="71" height="21">
<path d="M86 40H15V61H86V40Z" fill="white"/>
</mask>
<g mask="url(#mask4_1_21)">
<path d="M47.2885 56.1643C46.8917 55.7874 46.8173 55.1309 46.8173 54.6045V46.5255C46.8173 45.9601 46.8917 45.2516 47.3009 44.8292C47.7039 44.4197 48.3425 44.3352 48.8757 44.3352H50.903C51.5478 44.3352 52.2111 44.3872 52.8435 44.5432C53.3829 44.6797 53.9037 44.8877 54.3749 45.1996C55.1746 45.7391 55.776 46.467 56.2038 47.3575C56.6564 48.2934 56.8672 49.3008 56.8672 50.3473C56.8672 52.0371 56.4642 53.6555 55.3296 54.9034C54.2137 56.1318 52.7381 56.5998 51.1448 56.5998H48.8509C48.3425 56.6063 47.6791 56.5413 47.2885 56.1643ZM49.9792 53.493H50.81C51.5478 53.493 52.3165 53.3305 52.8373 52.7391C53.3767 52.1086 53.5007 51.1532 53.5007 50.3408C53.5007 49.5803 53.3705 48.7289 52.8311 48.1699C52.2917 47.611 51.492 47.468 50.7666 47.468H49.9854V53.493H49.9792Z" fill="white"/>
</g>
<mask id="mask5_1_21" style="mask-type:luminance" maskUnits="userSpaceOnUse" x="15" y="40" width="71" height="21">
<path d="M86 40H15V61H86V40Z" fill="white"/>
</mask>
<g mask="url(#mask5_1_21)">
<path d="M61.2566 54.546C61.2566 55.0789 61.1884 55.7029 60.8846 56.1448C60.5995 56.5738 60.1655 56.7493 59.6757 56.7493C59.1859 56.7493 58.7519 56.5738 58.4667 56.1448C58.1629 55.6964 58.0947 55.0789 58.0947 54.546V46.402C58.0947 45.8691 58.1629 45.2516 58.4605 44.7967C58.7457 44.3677 59.1797 44.1922 59.6695 44.1922C60.1593 44.1922 60.5933 44.3742 60.8784 44.7967C61.176 45.2451 61.2442 45.8626 61.2442 46.402V54.546H61.2566Z" fill="white"/>
</g>
<mask id="mask6_1_21" style="mask-type:luminance" maskUnits="userSpaceOnUse" x="15" y="40" width="71" height="21">
<path d="M86 40H15V61H86V40Z" fill="white"/>
</mask>
<g mask="url(#mask6_1_21)">
<path d="M70.0045 50.8412V46.402C70.0045 45.8691 70.0727 45.2516 70.3703 44.7967C70.6555 44.3677 71.0895 44.1922 71.5793 44.1922C72.0691 44.1922 72.5031 44.3742 72.7882 44.7967C73.0858 45.2451 73.154 45.8626 73.154 46.402V54.8384C73.154 55.3194 73.092 55.8849 72.813 56.2813C72.5403 56.6713 72.1311 56.8208 71.6847 56.8208C71.3561 56.8208 71.0523 56.7233 70.7733 56.5348C70.4695 56.3333 70.2029 56.0279 69.9859 55.7224L65.9995 50.1978V54.5395C65.9995 55.0724 65.9313 55.6964 65.6275 56.1383C65.3423 56.5673 64.9083 56.7428 64.4185 56.7428C63.9287 56.7428 63.4948 56.5673 63.2096 56.1383C62.9058 55.6899 62.8376 55.0724 62.8376 54.5395V46.3045C62.8376 45.7976 62.8996 45.2126 63.1848 44.7837C63.4576 44.3807 63.8606 44.2052 64.3255 44.2052C64.6293 44.2052 64.9145 44.2832 65.1811 44.4457C65.4663 44.6212 65.7143 44.9071 65.9189 45.1801L70.0045 50.8412Z" fill="white"/>
</g>
<mask id="mask7_1_21" style="mask-type:luminance" maskUnits="userSpaceOnUse" x="15" y="40" width="71" height="21">
<path d="M86 40H15V61H86V40Z" fill="white"/>
</mask>
<g mask="url(#mask7_1_21)">
<path d="M78.0519 47.468V48.8719H79.5026C80.0048 48.8719 80.5938 48.9369 81.0216 49.2293C81.4246 49.5023 81.6105 49.9313 81.6105 50.4318C81.6105 50.9322 81.4246 51.3612 81.0216 51.6342C80.5938 51.9201 79.9986 51.9851 79.5026 51.9851H78.0519V53.493H79.8622C80.3644 53.493 80.9596 53.558 81.3874 53.8505C81.7903 54.1235 81.9701 54.546 81.9701 55.0464C81.9701 55.5469 81.7903 55.9759 81.3874 56.2488C80.9596 56.5413 80.3644 56.6063 79.8622 56.6063H76.9235C76.4213 56.6063 75.7517 56.5478 75.3674 56.1708C74.9768 55.7939 74.8962 55.1439 74.8962 54.611V46.5255C74.8962 45.9601 74.9706 45.2516 75.3798 44.8292C75.7827 44.4197 76.4213 44.3352 76.9545 44.3352H79.7878C80.29 44.3352 80.879 44.4002 81.3068 44.6992C81.7159 44.9786 81.9019 45.4076 81.9019 45.9146C81.9019 46.415 81.7159 46.8375 81.313 47.1105C80.879 47.403 80.29 47.468 79.7878 47.468H78.0519Z" fill="white"/>
</g>
<mask id="mask8_1_21" style="mask-type:luminance" maskUnits="userSpaceOnUse" x="15" y="40" width="71" height="21">
<path d="M86 40H15V61H86V40Z" fill="white"/>
</mask>
<g mask="url(#mask8_1_21)">
<path d="M34.2504 50.4837C34.2504 48.7419 34.6905 47.1105 35.8375 45.8171C36.9473 44.5627 38.3794 44.0167 40.0038 44.0167C40.1588 44.0167 40.3075 44.0232 40.4563 44.0297C39.8178 44.8876 39.4272 45.9601 39.266 47.3055C38.8878 47.4355 38.5654 47.6824 38.2926 48.0464C37.778 48.7419 37.6292 49.6518 37.6292 50.5097C37.6292 51.3547 37.7842 52.2256 38.2988 52.9016C38.739 53.48 39.297 53.753 40.0038 53.753C40.7043 53.753 41.2685 53.48 41.7087 52.9016C42.2171 52.2256 42.3783 51.3547 42.3783 50.5097C42.3783 50.1783 42.3535 49.8403 42.2977 49.5153C42.9611 49.2293 43.6492 49.0473 44.2754 48.5014C44.6722 48.1569 44.9698 47.7929 45.1868 47.403C45.596 48.3519 45.7696 49.3918 45.7696 50.4772C45.7696 52.2191 45.3356 53.857 44.1824 55.1504C43.0665 56.4048 41.6281 56.9443 40.0038 56.9443C38.3794 56.9443 36.9411 56.4113 35.8313 55.1504C34.6843 53.857 34.2504 52.2191 34.2504 50.4837Z" fill="white"/>
</g>
</g>
<mask id="mask9_1_21" style="mask-type:luminance" maskUnits="userSpaceOnUse" x="15" y="40" width="71" height="21">
<path d="M86 40H15V61H86V40Z" fill="white"/>
</mask>
<g mask="url(#mask9_1_21)">
<mask id="mask10_1_21" style="mask-type:luminance" maskUnits="userSpaceOnUse" x="39" y="42" width="7" height="9">
<path d="M45.317 42.2423C45.317 42.2618 45.317 42.2878 45.317 42.2423ZM39.7868 50.7567C39.793 50.7502 39.793 50.7567 39.7868 50.7567C39.8054 50.5422 39.8302 50.3083 39.8798 50.0548C40.6857 45.6156 43.2958 43.3538 45.317 42.2423C45.317 42.2293 45.317 42.2228 45.317 42.2228C41.2127 43.2173 39.4706 45.6221 39.7868 50.7567Z" fill="white"/>
</mask>
<g mask="url(#mask10_1_21)">
<path d="M40.2889 52.8821L48.1441 49.5543L44.4986 40.091L36.6435 43.4188L40.2889 52.8821Z" fill="url(#paint0_linear_1_21)"/>
</g>
</g>
<mask id="mask11_1_21" style="mask-type:luminance" maskUnits="userSpaceOnUse" x="15" y="40" width="71" height="21">
<path d="M86 40H15V61H86V40Z" fill="white"/>
</mask>
<g mask="url(#mask11_1_21)">
<mask id="mask12_1_21" style="mask-type:luminance" maskUnits="userSpaceOnUse" x="39" y="42" width="7" height="9">
<path d="M39.8798 50.0548C39.8364 50.3083 39.8054 50.5357 39.793 50.7502C40.9027 48.5664 42.5085 48.9889 43.8414 47.8384C45.3976 46.4865 45.4286 44.7902 45.348 42.8858C45.3356 42.5478 45.3232 42.3073 45.317 42.2358C43.2958 43.3538 40.6857 45.6221 39.8798 50.0548Z" fill="white"/>
</mask>
<g mask="url(#mask12_1_21)">
<mask id="mask13_1_21" style="mask-type:luminance" maskUnits="userSpaceOnUse" x="38" y="41" width="10" height="11">
<path d="M47.0715 41.0399H38.1376V51.9527H47.0715V41.0399Z" fill="white"/>
</mask>
<g mask="url(#mask13_1_21)">
<mask id="mask14_1_21" style="mask-type:luminance" maskUnits="userSpaceOnUse" x="38" y="41" width="10" height="11">
<path d="M40.0339 41.0407L38.1392 50.3858L45.1795 51.9546L47.0743 42.6095L40.0339 41.0407Z" fill="white"/>
</mask>
<g mask="url(#mask14_1_21)">
<path d="M36.0235 51.4782L46.6871 53.857L49.1918 41.5144L38.5282 39.1356L36.0235 51.4782Z" fill="url(#paint1_linear_1_21)"/>
</g>
</g>
</g>
</g>
</g>
<defs>
<linearGradient id="paint0_linear_1_21" x1="38.7409" y1="48.0348" x2="46.4142" y2="45.0776" gradientUnits="userSpaceOnUse">
<stop stop-color="#A6CE39"/>
<stop offset="0.1559" stop-color="#A6CE39"/>
<stop offset="0.2836" stop-color="#97C63B"/>
<stop offset="0.5157" stop-color="#72B73F"/>
<stop offset="0.8236" stop-color="#20A244"/>
<stop offset="0.9892" stop-color="#009745"/>
<stop offset="1" stop-color="#009745"/>
</linearGradient>
<linearGradient id="paint1_linear_1_21" x1="40.6847" y1="46.0683" x2="44.9306" y2="46.9292" gradientUnits="userSpaceOnUse">
<stop stop-color="#FFF200"/>
<stop offset="0.0979843" stop-color="#F6E900"/>
<stop offset="0.2801" stop-color="#D1D820"/>
<stop offset="0.5264" stop-color="#99C035"/>
<stop offset="0.8242" stop-color="#44A541"/>
<stop offset="1" stop-color="#009745"/>
</linearGradient>
<clipPath id="clip0_1_21">
<rect width="71" height="21" fill="white" transform="translate(15 40)"/>
</clipPath>
</defs>
</svg>
