<svg width="100" height="100" viewBox="0 0 100 100" fill="none" xmlns="http://www.w3.org/2000/svg">
<g clip-path="url(#clip0_1_189)">
<path fill-rule="evenodd" clip-rule="evenodd" d="M36.199 73.6433C27.3065 69.3033 22.2598 60.4333 22.2598 50.53C22.2598 35.2833 34.4516 23 50.1214 23C65.7171 23 77.9831 35.38 77.9831 50.53C77.9831 60.4367 72.3359 69.62 64.0709 73.6433C55.6911 77.7233 44.5552 77.7233 36.199 73.6433ZM32.8795 60.0467C38.9754 53.2967 47.3316 39.53 50.1349 30.1367C52.9147 39.5333 61.2708 53.2967 67.5894 60.0433H52.9147V64.1233C52.9147 67.0633 55.1986 68.86 57.6781 68.83C61.2742 68.7867 65.9161 67.0633 68.9658 62.1833C69.826 60.81 72.4304 56.0433 72.4304 50.53C72.4304 38.78 62.4752 28.51 50.1248 28.51C37.6361 28.51 27.8193 38.4867 27.8193 50.53C27.8193 56.04 29.3272 58.79 31.4053 62.28C34.2559 67.0633 38.9754 68.7867 42.7504 68.83C45.466 68.8633 47.3316 66.4567 47.3653 64.1367L47.3316 60.0467H32.8795Z" fill="#157946"/>
</g>
<defs>
<clipPath id="clip0_1_189">
<rect width="56" height="54" fill="white" transform="translate(22 23)"/>
</clipPath>
</defs>
</svg>
