<svg width="100" height="100" viewBox="0 0 100 100" fill="none" xmlns="http://www.w3.org/2000/svg">
<rect x="3.05176e-05" width="100" height="100" fill="white"/>
<path d="M49.9997 0C22.3862 0 0 22.3862 0 50.0003C0 77.6156 22.3862 100 49.9997 100C77.6162 100 100 77.6156 100 50.0003C100 22.3879 77.6162 0.00238829 49.9991 0.00238829L49.9997 0ZM72.9292 72.1148C72.0337 73.5836 70.1111 74.0493 68.6423 73.1477C56.9029 65.9768 42.1245 64.3528 24.7201 68.3293C23.043 68.7115 21.3712 67.6606 20.9891 65.9828C20.6052 64.305 21.6518 62.6332 23.3332 62.2511C42.3794 57.8996 58.7168 59.7732 71.8963 67.8278C73.3651 68.7294 73.8308 70.646 72.9292 72.1148ZM79.0491 58.5003C77.9207 60.3345 75.5205 60.9136 73.6875 59.7852C60.2477 51.524 39.7607 49.1316 23.8639 53.9571C21.8023 54.5799 19.6248 53.418 18.9991 51.3598C18.3781 49.2981 19.5406 47.1248 21.5987 46.4979C39.7571 40.988 62.3314 43.657 77.7654 53.1415C79.5984 54.27 80.1776 56.6696 79.0491 58.5003ZM79.5745 44.3233C63.4598 34.7516 36.8727 33.8715 21.487 38.5412C19.0164 39.2906 16.4037 37.8958 15.6549 35.4251C14.9062 32.9532 16.2998 30.3422 18.7722 29.5911C36.4339 24.2293 65.7944 25.2653 84.3474 36.2795C86.5745 37.5984 87.3029 40.4686 85.9834 42.6879C84.6699 44.9102 81.792 45.6428 79.5769 44.3233H79.5745Z" fill="#1ED760"/>
</svg>
