<svg width="100" height="100" viewBox="0 0 100 100" fill="none" xmlns="http://www.w3.org/2000/svg">
<rect width="100" height="100" fill="#FF6D00"/>
<g clip-path="url(#clip0_1_205)">
<path d="M99.8495 38H0V62.1479H99.8495V38Z" fill="#FF6D00"/>
<mask id="mask0_1_205" style="mask-type:luminance" maskUnits="userSpaceOnUse" x="0" y="38" width="100" height="25">
<path d="M99.8328 38H0V62.1479H99.8328V38Z" fill="white"/>
</mask>
<g mask="url(#mask0_1_205)">
<path d="M29.3478 47.833C29.3478 47.9352 29.2475 48.0034 29.1471 47.9523C28.6288 47.6626 27.8595 47.3899 27.2241 47.3899C26.5217 47.3899 26.2709 47.6796 26.2709 48.0204C26.2709 48.259 26.505 48.5147 26.9063 48.7362L28.0267 49.3838C29.3311 50.1506 29.8662 51.0879 29.8662 52.2468C29.8662 53.8998 28.8294 55.3995 26.4381 55.3995C25.5853 55.3995 24.7324 55.229 24.097 54.9905C23.9966 54.9564 23.913 54.8541 23.913 54.7348V52.4683C23.913 52.3661 24.0301 52.2979 24.1137 52.349C24.6823 52.7239 25.5518 53.0477 26.3211 53.0477C26.9063 53.0477 27.2408 52.8262 27.2408 52.4001C27.2408 52.1616 27.0568 51.94 26.5886 51.6844L25.4181 51.0027C24.0468 50.2018 23.6288 49.2986 23.6288 48.1057C23.6288 46.6401 24.515 45.0382 27.2408 45.0382C27.8595 45.0382 28.5619 45.1575 29.1639 45.379C29.2642 45.4131 29.3311 45.5153 29.3311 45.6346V47.833H29.3478Z" fill="white"/>
</g>
<mask id="mask1_1_205" style="mask-type:luminance" maskUnits="userSpaceOnUse" x="0" y="38" width="100" height="25">
<path d="M99.8328 38H0V62.1479H99.8328V38Z" fill="white"/>
</mask>
<g mask="url(#mask1_1_205)">
<path d="M32.893 47.6285H30.8863C30.7358 47.6285 30.6187 47.5092 30.6187 47.3558V45.4813C30.6187 45.3279 30.7358 45.2086 30.8863 45.2086H37.3579C37.5084 45.2086 37.6254 45.3279 37.6254 45.4813V47.3558C37.6254 47.5092 37.5084 47.6285 37.3579 47.6285H35.3512V54.9734C35.3512 55.1268 35.2341 55.2461 35.0836 55.2461H33.1605C33.01 55.2461 32.893 55.1268 32.893 54.9734V47.6285Z" fill="white"/>
</g>
<mask id="mask2_1_205" style="mask-type:luminance" maskUnits="userSpaceOnUse" x="0" y="38" width="100" height="25">
<path d="M99.8328 38H0V62.1479H99.8328V38Z" fill="white"/>
</mask>
<g mask="url(#mask2_1_205)">
<path d="M46.2542 45.2086C46.4047 45.2086 46.5217 45.3279 46.5217 45.4813V51.3776C46.5217 53.9339 45.0335 55.4165 42.6756 55.4165C40.3177 55.4165 38.8294 53.9339 38.8294 51.3776V45.4813C38.8294 45.3279 38.9465 45.2086 39.097 45.2086H41.0201C41.1706 45.2086 41.2876 45.3279 41.2876 45.4813V51.5821C41.2876 52.4001 41.806 52.9625 42.6756 52.9625C43.5452 52.9625 44.0636 52.3831 44.0636 51.5821V45.4813C44.0636 45.3279 44.1806 45.2086 44.3311 45.2086H46.2542Z" fill="white"/>
</g>
<mask id="mask3_1_205" style="mask-type:luminance" maskUnits="userSpaceOnUse" x="0" y="38" width="100" height="25">
<path d="M99.8328 38H0V62.1479H99.8328V38Z" fill="white"/>
</mask>
<g mask="url(#mask3_1_205)">
<path d="M48.3947 45.4813C48.3947 45.3279 48.5117 45.2086 48.6622 45.2086H52.1405C55.1672 45.2086 57.0234 47.2877 57.0234 50.2359C57.0234 53.167 55.1672 55.2631 52.1405 55.2631H48.6622C48.5117 55.2631 48.3947 55.1438 48.3947 54.9905V45.4813ZM50.8528 47.6285V52.8262H52.107C53.6789 52.8262 54.4816 51.7014 54.4816 50.2359C54.4816 48.7703 53.6789 47.6455 52.107 47.6455H50.8528V47.6285Z" fill="white"/>
</g>
<mask id="mask4_1_205" style="mask-type:luminance" maskUnits="userSpaceOnUse" x="0" y="38" width="100" height="25">
<path d="M99.8328 38H0V62.1479H99.8328V38Z" fill="white"/>
</mask>
<g mask="url(#mask4_1_205)">
<path d="M58.4448 54.9734V45.4813C58.4448 45.3279 58.5619 45.2086 58.7124 45.2086H64.4816C64.6321 45.2086 64.7492 45.3279 64.7492 45.4813V47.3558C64.7492 47.5092 64.6321 47.6285 64.4816 47.6285H60.903V48.9748H64.1973C64.3478 48.9748 64.4649 49.0941 64.4649 49.2474V51.122C64.4649 51.2754 64.3478 51.3947 64.1973 51.3947H60.903V52.8262H64.4816C64.6321 52.8262 64.7492 52.9455 64.7492 53.0988V54.9734C64.7492 55.1268 64.6321 55.2461 64.4816 55.2461H58.7124C58.5786 55.2461 58.4448 55.1268 58.4448 54.9734Z" fill="white"/>
</g>
<mask id="mask5_1_205" style="mask-type:luminance" maskUnits="userSpaceOnUse" x="0" y="38" width="100" height="25">
<path d="M99.8328 38H0V62.1479H99.8328V38Z" fill="white"/>
</mask>
<g mask="url(#mask5_1_205)">
<path d="M69.0134 50.1336V54.9734C69.0134 55.1268 68.8963 55.2461 68.7458 55.2461H66.8227C66.6722 55.2461 66.5552 55.1268 66.5552 54.9734V46.5208L65.9197 45.4472C65.8528 45.3449 65.9364 45.2086 66.0535 45.2086H68.6287C68.7124 45.2086 68.8127 45.2597 68.8629 45.3279L72.408 50.8664V45.4813C72.408 45.3279 72.5251 45.2086 72.6756 45.2086H74.5986C74.7491 45.2086 74.8662 45.3279 74.8662 45.4813V54.9734C74.8662 55.1268 74.7491 55.2461 74.5986 55.2461H72.5752C72.4749 55.2461 72.3746 55.195 72.3244 55.1097L69.0134 50.1336Z" fill="white"/>
</g>
<mask id="mask6_1_205" style="mask-type:luminance" maskUnits="userSpaceOnUse" x="0" y="38" width="100" height="25">
<path d="M99.8328 38H0V62.1479H99.8328V38Z" fill="white"/>
</mask>
<g mask="url(#mask6_1_205)">
<path d="M82.3411 53.4226H79.0468L78.5117 55.0586C78.4783 55.1779 78.3779 55.2461 78.2609 55.2461H76.087C75.903 55.2461 75.7692 55.0586 75.8361 54.8712L79.2642 45.379C79.2977 45.2768 79.398 45.2086 79.5151 45.2086H81.8896C82.0067 45.2086 82.107 45.2768 82.1405 45.379L85.5686 54.8712C85.6355 55.0416 85.5017 55.2461 85.3177 55.2461H83.1438C83.0268 55.2461 82.9264 55.1779 82.893 55.0586L82.3411 53.4226ZM79.8662 51.0027H81.5385L80.7023 48.4806L79.8662 51.0027Z" fill="white"/>
</g>
<mask id="mask7_1_205" style="mask-type:luminance" maskUnits="userSpaceOnUse" x="0" y="38" width="100" height="25">
<path d="M99.8328 38H0V62.1479H99.8328V38Z" fill="white"/>
</mask>
<g mask="url(#mask7_1_205)">
<path d="M92.6588 55.0586C92.0568 55.2972 91.3712 55.4165 90.6522 55.3995C87.2575 55.3313 85.1338 52.5535 85.7859 49.1622C86.2374 46.7594 88.2274 45.0382 90.7525 45.0382C91.4214 45.0382 92.0736 45.1575 92.6588 45.379C92.7592 45.4131 92.8261 45.5153 92.8261 45.6346V47.9864C92.8261 48.1227 92.6756 48.1909 92.5752 48.1227C92.107 47.7819 91.4883 47.5603 90.7692 47.5603C89.3144 47.5603 88.2274 48.7873 88.2274 50.2529C88.2441 51.923 89.7826 53.15 91.4047 52.8432C91.8729 52.758 92.2742 52.5705 92.592 52.349C92.6923 52.2808 92.8428 52.349 92.8428 52.4853V54.803C92.8261 54.9223 92.7592 55.0245 92.6588 55.0586Z" fill="white"/>
</g>
<mask id="mask8_1_205" style="mask-type:luminance" maskUnits="userSpaceOnUse" x="0" y="38" width="100" height="25">
<path d="M99.8328 38.8521H0V63H99.8328V38.8521Z" fill="white"/>
</mask>
<g mask="url(#mask8_1_205)">
<path d="M18.0268 49.9973L17.9264 49.9802H16.3712L17.893 48.3272C18.1438 48.0545 18.1605 47.6796 17.9431 47.4751C17.8595 47.3899 17.7425 47.3388 17.6087 47.3388C17.4415 47.3388 17.2575 47.424 17.107 47.5774L14.8829 49.9632H8.79598L6.5719 47.5774C6.4214 47.424 6.23745 47.3388 6.07023 47.3388C5.95317 47.3388 5.83612 47.3729 5.73578 47.4751C5.51839 47.6796 5.55184 48.0545 5.78595 48.3272L7.30769 49.9802H5.65217V49.9973C5.48495 50.0484 5.36789 50.1847 5.36789 50.3722V51.2243C5.36789 51.4458 5.53511 51.6162 5.75251 51.6162H5.98662L7.00669 56.7457C7.05685 57.0354 7.32441 57.2399 7.60869 57.2399H16.087C16.3712 57.2399 16.6388 57.0354 16.689 56.7457L17.709 51.6162H17.9431C18.1605 51.6162 18.3278 51.4458 18.3278 51.2243V50.3722C18.3278 50.2018 18.194 50.0484 18.0268 49.9973ZM10.1672 55.2972C10.1672 55.604 9.93311 55.8425 9.6321 55.8425C9.3311 55.8425 9.09699 55.604 9.09699 55.2972V52.5024C9.09699 52.1956 9.3311 51.9571 9.6321 51.9571C9.93311 51.9571 10.1672 52.1956 10.1672 52.5024V55.2972ZM12.3913 55.2972C12.3913 55.604 12.1572 55.8425 11.8562 55.8425C11.5552 55.8425 11.3211 55.604 11.3211 55.2972V52.5024C11.3211 52.1956 11.5552 51.9571 11.8562 51.9571C12.1572 51.9571 12.3913 52.1956 12.3913 52.5024V55.2972ZM14.5987 55.2972C14.5987 55.604 14.3645 55.8425 14.0635 55.8425C13.7625 55.8425 13.5284 55.604 13.5284 55.2972V52.5024C13.5284 52.1956 13.7625 51.9571 14.0635 51.9571C14.3645 51.9571 14.5987 52.1956 14.5987 52.5024V55.2972ZM16.2542 44.3906L16.1371 44.8848C16.0535 44.9018 16.0033 44.987 15.9866 45.1063L15.602 48.3954L14.7157 49.3497H8.99665L8.17725 48.4806C7.80936 46.2311 8.22742 44.3565 9.19732 44.1179C9.81605 43.9646 10.5351 44.4928 11.1706 45.4642C10.2676 45.7198 9.6321 46.0266 9.66555 46.197C9.71572 46.3674 10.5184 46.3163 11.5217 46.0948C11.6388 46.3333 11.7558 46.589 11.8729 46.8616C11.8227 46.8787 11.7726 46.8787 11.7224 46.8957C10.6187 47.1684 9.76588 47.5433 9.81605 47.7307C9.86622 47.9182 10.7859 47.85 11.8896 47.5774C11.9565 47.5603 12.0401 47.5433 12.107 47.5262C12.1906 47.7819 12.2575 48.0545 12.3244 48.3272C12.3746 48.5487 12.4247 48.7873 12.4749 49.0089L15.0669 44.7655C15.1505 44.6462 15.1505 44.561 15.0836 44.5099L15.3344 44.0668C15.3679 43.9986 15.4515 43.9646 15.5184 43.9646C15.602 43.9816 15.7191 43.9986 15.8361 44.0327C15.9532 44.0838 16.0702 44.135 16.1706 44.1861C16.2375 44.2202 16.2709 44.3054 16.2542 44.3906Z" fill="white"/>
</g>
</g>
<defs>
<clipPath id="clip0_1_205">
<rect width="100" height="25" fill="white" transform="translate(0 38)"/>
</clipPath>
</defs>
</svg>
