<svg width="100" height="100" viewBox="0 0 100 100" fill="none" xmlns="http://www.w3.org/2000/svg">
<g clip-path="url(#clip0_1_205)">
<path d="M81.3356 34.2952C80.5784 31.4223 78.3551 29.1646 75.5261 28.3955C70.4039 27.0002 49.8545 27.0002 49.8545 27.0002C49.8545 27.0002 29.3055 27.0002 24.183 28.3955C21.3541 29.1646 19.1309 31.4223 18.3737 34.2952C16.9998 39.4973 16.9998 50.3573 16.9998 50.3573C16.9998 50.3573 16.9998 61.2175 18.3737 66.4196C19.1309 69.2925 21.3541 71.5502 24.183 72.3191C29.3055 73.7144 49.8545 73.7144 49.8545 73.7144C49.8545 73.7144 70.4039 73.7144 75.5261 72.3191C78.3551 71.5502 80.5784 69.2925 81.3356 66.4196C82.7096 61.2175 82.7096 50.3573 82.7096 50.3573C82.7096 50.3573 82.7041 39.4973 81.3356 34.2952Z" fill="#FF0000"/>
<path d="M43.2775 60.3667L60.3487 50.3581L43.2775 40.3495V60.3667Z" fill="white"/>
</g>
<defs>
<clipPath id="clip0_1_205">
<rect width="66" height="47" fill="white" transform="translate(17 27)"/>
</clipPath>
</defs>
</svg>
