<svg version="1.1" id="Layer_1" xmlns:x="ns_extend;" xmlns:i="ns_ai;" xmlns:graph="ns_graphs;" xmlns="http://www.w3.org/2000/svg" xmlns:xlink="http://www.w3.org/1999/xlink" x="0px" y="0px" viewBox="0 0 202.2 72" style="enable-background:new 0 0 202.2 72;" xml:space="preserve">
 <style type="text/css">
  .st0{fill-rule:evenodd;clip-rule:evenodd;}
	.st1{opacity:0.6;}
 </style>
 <metadata>
  <sfw xmlns="ns_sfw;">
   <slices>
   </slices>
   <sliceSourceBounds bottomLeftOrigin="true" height="72" width="202.2" x="116.3" y="-210.1">
   </sliceSourceBounds>
  </sfw>
 </metadata>
 <g>
  <path class="st0" d="M30.9,28.3V13.5c0-4.2-2.3-6.2-6-6.2c-3.1,0-5.9,1.9-7.1,3.7c-0.8-2.3-2.7-3.7-5.7-3.7c-3.1,0-5.9,2-6.7,3.2
		V7.8H0v20.5h5.4V14.5c0.8-1.1,2.4-2.4,4.2-2.4c2.2,0,3.1,1.4,3.1,3.3v13h5.4V14.5c0.8-1.1,2.3-2.4,4.2-2.4c2.2,0,3.1,1.4,3.1,3.3
		v13H30.9z M45.7,28.8c-6.8,0-10.8-4.9-10.8-10.8c0-5.8,4.1-10.7,10.8-10.7c6.8,0,10.9,4.9,10.9,10.7C56.6,23.9,52.5,28.8,45.7,28.8
		z M45.7,24c3.4,0,5.3-2.8,5.3-6c0-3.2-1.9-5.9-5.3-5.9c-3.4,0-5.2,2.8-5.2,5.9C40.5,21.3,42.4,24,45.7,24z M79.8,28.3V13.8
		c0-4-2.2-6.5-6.7-6.5c-3.4,0-5.9,1.6-7.2,3.2V7.8h-5.4v20.5H66V14.5c0.9-1.2,2.5-2.4,4.7-2.4c2.3,0,3.8,1,3.8,3.8v12.4H79.8z
		 M94.7,28.8c-6.8,0-10.8-4.9-10.8-10.8c0-5.8,4.1-10.7,10.8-10.7c6.8,0,10.9,4.9,10.9,10.7C105.6,23.9,101.5,28.8,94.7,28.8z
		 M94.7,24c3.4,0,5.3-2.8,5.3-6c0-3.2-1.9-5.9-5.3-5.9s-5.2,2.8-5.2,5.9C89.5,21.3,91.3,24,94.7,24z M115,21.8
		c0.9,1.3,2.9,2.3,4.6,2.3c3.1,0,5.2-2.4,5.2-5.9c0-3.6-2.1-6-5.2-6c-1.7,0-3.7,1-4.6,2.4V21.8z M115,28.3h-5.4V0h5.4v10.5
		c1.6-2.1,3.9-3.1,6.3-3.1c5.2,0,9.1,4.1,9.1,10.8c0,6.8-3.9,10.7-9.1,10.7c-2.5,0-4.7-1.1-6.3-3.1V28.3z M152.2,28.3h-5.4v-2.1
		c-1.4,1.7-3.8,2.6-6.5,2.6c-3.3,0-7.1-2.2-7.1-6.8c0-4.8,3.9-6.6,7.1-6.6c2.7,0,5.1,0.9,6.5,2.5v-2.8c0-2.1-1.8-3.4-4.5-3.4
		c-2.2,0-4.2,0.8-6,2.4l-2-3.6c2.5-2.2,5.7-3.2,9-3.2c4.7,0,9,1.9,9,7.8V28.3z M142.4,25.2c1.7,0,3.4-0.6,4.3-1.8v-2.5
		c-0.9-1.2-2.6-1.8-4.3-1.8c-2.1,0-3.9,1.1-3.9,3.1C138.6,24.1,140.3,25.2,142.4,25.2z M176.8,28.3V13.8c0-4-2.2-6.5-6.7-6.5
		c-3.4,0-5.9,1.6-7.2,3.2V7.8h-5.4v20.5h5.4V14.5c0.9-1.2,2.5-2.4,4.7-2.4c2.3,0,3.8,1,3.8,3.8v12.4H176.8z M202.2,28.3l-8.4-11.2
		l8.1-9.3h-6.6l-7.8,9.1V0h-5.4v28.3h5.4v-5.3l2.5-2.6l5.4,7.9H202.2z">
  </path>
  <g class="st1">
   <path class="st0" d="M187.9,50.8h3.9v12.3h0.2l5-5.9l3.6,0l-5.5,6.4l6.6,8h-4.4l-5.4-7.5h-0.1v7.5h-3.9V50.8z">
   </path>
   <path class="st0" d="M4.7,51.8v11.4c0,3.9,1.2,6,4.4,6c3.1,0,4.3-2.6,4.3-5.8V51.8h3.6v12.4c0,5-3.3,7.9-8.1,7.9
			c-5.5,0-8.3-2.6-8.3-8.1V51.8H4.7z">
   </path>
   <path class="st0" d="M25.6,59.1c1.3-1.4,3.1-2,4.9-2c3.4,0,5.2,1.8,5.2,5.4v9.2h-3.8v-8.7c0-2-0.9-3.3-2.9-3.3
			c-1.9,0-3.4,1.2-3.4,3.6v8.5h-3.8V57.4h3.8V59.1z">
   </path>
   <path class="st0" d="M40.2,71.7H44V57.4h-3.8V71.7z M39.8,53.2c0-1.1,0.9-2.2,2.2-2.2c1.3,0,2.4,1.1,2.4,2.2
			c0,1.2-0.9,2.4-2.3,2.4C40.8,55.6,39.8,54.4,39.8,53.2z">
   </path>
   <path class="st0" d="M52.5,71.7l-6.1-14.3h4.1c1.2,3.3,2.5,6.3,3.7,10.3h0.1c1.3-4,2.5-7,3.9-10.3h3.6l-6.5,14.3H52.5z">
   </path>
   <path class="st0" d="M73.1,62.8c0.2-2.2-0.6-3.6-2.5-3.6c-2.2,0-3.2,1.7-3.1,3.6H73.1z M67.4,64.9c-0.1,2.7,1.8,4.7,4.2,4.7
			c1.4,0,2.9-0.5,3.9-1.1l1.1,2c-2,1.1-4,1.6-5.7,1.6c-4.4,0-7.6-3-7.6-7.7c0-4.4,3.2-7.2,7.4-7.2c4.5,0,6.4,3.6,6.1,7.8H67.4z">
   </path>
   <path class="st0" d="M84.3,59.9L84.3,59.9l0.8-1.1c0.4-0.6,1.3-1.7,2.5-1.7c0.9,0,1.8,0.5,2.6,1.3L88.8,61c-0.6-0.3-1-0.5-1.8-0.5
			c-1.3,0-2.6,1.1-2.6,4.1v7h-3.9V57.4h3.8V59.9z">
   </path>
   <path class="st0" d="M100.5,60.1c-0.9-0.6-1.8-0.9-2.5-0.9c-0.9,0-1.7,0.5-1.7,1.4c0,1.1,1.4,1.8,3,3c2.1,1.5,2.7,3,2.7,4.3
			c0,2-2.2,4.1-5.4,4.1c-2,0-3.5-0.7-4.8-1.6l1.2-2c0.9,0.7,2.1,1.4,3.1,1.4c1.1,0,2.1-0.6,2.1-1.8c0-1.3-1.5-2.1-2.9-3
			c-1.6-1.1-2.8-2.2-2.8-3.9c0-2.3,2.2-3.9,5-3.9c1.6,0,3.1,0.4,4.2,1.3L100.5,60.1z">
   </path>
   <path class="st0" d="M111.4,64.1c-1.9,0.6-2.8,1.6-2.8,3.3c0,1.3,0.8,2.1,1.7,2.1c1.5,0,3.5-1.9,3.2-6.1L111.4,64.1z M112.6,70.3
			c-1,0.9-2.4,1.7-3.7,1.7c-2.3,0-4.1-1.7-4.1-4.3c0-2.7,2-4.2,5.3-5.2l3.4-1c-0.2-1.3-1.4-2.1-2.6-2.1c-1.7,0-2.8,0.6-3.8,1.5
			l-1.2-1.8c1.8-1.4,3.6-1.9,5.5-1.9c2.7,0,5.9,0.8,5.9,5.3v5.8c0,1.1,0.1,2.5,0.6,3.5h-4.1c-0.3-0.5-0.4-1.3-0.4-2.1L112.6,70.3z">
   </path>
   <path class="st0" d="M121.6,71.7h3.8V50.8h-3.8V71.7z">
   </path>
   <path class="st0" d="M159.5,64.1c-1.9,0.6-2.8,1.6-2.8,3.3c0,1.3,0.8,2.1,1.7,2.1c1.5,0,3.5-1.9,3.2-6.1L159.5,64.1z M160.7,70.3
			c-1,0.9-2.4,1.7-3.7,1.7c-2.2,0-4.1-1.7-4.1-4.3c0-2.7,2-4.2,5.3-5.2l3.4-1c-0.2-1.3-1.4-2.1-2.6-2.1c-1.6,0-2.8,0.6-3.8,1.5
			l-1.2-1.8c1.8-1.4,3.6-1.9,5.5-1.9c2.7,0,5.9,0.8,5.9,5.3v5.8c0,1.1,0.1,2.5,0.6,3.5h-4.1c-0.3-0.5-0.4-1.3-0.4-2.1L160.7,70.3z">
   </path>
   <path class="st0" d="M173.5,59.1c1.3-1.4,3.1-2,4.9-2c3.4,0,5.2,1.8,5.2,5.4v9.2h-3.8v-8.7c0-2-0.9-3.3-2.9-3.3
			c-1.9,0-3.3,1.2-3.3,3.6v8.5h-3.8V57.4h3.8V59.1z">
   </path>
   <path class="st0" d="M139.5,69.3h2.1c2.3,0,4-1.2,4-3.4c0-2.3-1.8-3.3-4-3.3h-2.1V69.3z M139.5,60.1h1.3c2.3,0,3.9-1.5,3.9-3.3
			c0-1.8-1.3-2.5-3.1-2.5h-2.1V60.1z M135.4,71.7V51.8h7.3c3.4,0,5.8,1.5,5.8,4.2c0,3.2-2.6,4.5-4,4.9V61c2.5,0.1,5.3,1.8,5.3,4.9
			c0,3.4-2.9,5.9-7.7,5.9H135.4z">
   </path>
  </g>
 </g>
</svg>