<svg width="209" height="36" viewBox="0 0 209 36" fill="none" xmlns="http://www.w3.org/2000/svg">
<path d="M39.564 30.5964H34.4337V12.458H52.9027V30.5964H47.7735V15.9817H39.564V30.5964Z" fill="#60B238"/>
<path d="M55.3908 17.4323V35.3907H60.1186V29.2493C61.703 30.9603 64.284 31.0896 64.9061 31.0896C69.4151 31.0896 72.1821 28.2122 72.1821 24.0404C72.1821 19.6875 69.4454 16.9409 64.9999 16.9409C63.8792 16.9409 61.703 17.1223 59.8994 19.0144H59.8064L59.837 17.4323H55.3908ZM59.8994 23.9882C59.8994 20.3096 62.1701 19.5843 63.6007 19.5843C64.9999 19.5843 67.2695 20.3096 67.2695 23.9882C67.2695 26.2695 66.3061 28.4469 63.6007 28.4469C60.8333 28.4469 59.8994 26.2695 59.8994 23.9882Z" fill="#60B238"/>
<path d="M83.9036 29.0169C82.1631 30.6481 80.4861 31.0896 78.6186 31.0896C73.5193 31.0896 73.3318 27.2541 73.3318 25.6739V17.4323H78.0585V25.051C78.0585 27.6691 78.9626 28.4469 80.7023 28.4469C83.6859 28.4469 83.9036 25.7774 83.9036 24.8186V17.4323H88.6321V30.5963H83.9036V29.0169Z" fill="#60B238"/>
<path d="M95.4107 25.051H98.3028C100.54 25.051 101.007 25.7253 101.007 26.6067C101.007 27.1763 100.694 27.9541 98.3614 27.9541H95.4107V25.051ZM90.684 17.4323V30.5963H100.075C103.495 30.5963 105.857 29.9228 105.857 27.228C105.857 25.155 104.705 24.2483 102.095 23.7822V23.704C103.805 23.4708 105.299 22.408 105.299 20.6207C105.299 17.4323 101.567 17.4323 100.105 17.4323H90.684ZM95.4107 20.0768H97.9585C99.2961 20.0768 100.445 20.2839 100.445 21.3713C100.445 22.5645 98.6426 22.5902 97.8655 22.5902H95.4107V20.0768Z" fill="#60B238"/>
<path d="M111.827 21.6827C111.827 19.7393 113.879 19.5843 114.719 19.5843C115.248 19.5843 117.205 19.6104 117.269 21.3203C117.269 21.4499 117.269 21.5535 117.269 21.6827C117.176 22.9783 115.932 22.7194 112.451 23.1598C109.588 23.5483 106.572 24.2732 106.572 27.2802C106.572 28.3687 107.039 31.0896 112.076 31.0896C114.005 31.0896 116.12 30.5964 117.361 29.3015H117.457L117.86 30.5964H122.835V30.3639C121.933 30.1821 121.871 29.3015 121.901 27.8758L121.995 21.8634C122.027 20.3357 121.871 16.9409 114.751 16.9409C113.04 16.9409 107.536 17.0959 107.318 21.6827H111.827ZM117.3 25.155C117.3 27.7984 114.998 28.4469 113.85 28.4469C112.977 28.4469 111.423 28.1608 111.423 26.9177C111.423 25.4399 113.195 25.155 114.191 25.0253C116.025 24.766 115.869 24.8443 117.3 24.3254V25.155Z" fill="#60B238"/>
<path d="M122.524 20.0768V17.4323H137.697V20.0768H132.473V30.5963H127.748V20.0768H122.524Z" fill="#60B238"/>
<path d="M143.731 15.9817H155.515V12.458H138.599V30.5964H148.984C154.022 30.5964 157.255 28.8355 157.255 25.1289C157.255 19.3254 150.788 19.195 148.984 19.195H143.731V15.9817ZM143.731 22.7195H147.989C149.236 22.7195 151.721 22.8495 151.721 25.0253C151.721 26.736 149.917 27.0723 147.897 27.0723H143.731V22.7195Z" fill="#60B238"/>
<path d="M163.413 21.6827C163.413 19.7393 165.467 19.5843 166.304 19.5843C166.833 19.5843 168.793 19.6104 168.856 21.3203C168.856 21.4499 168.856 21.5535 168.856 21.6827C168.762 22.9783 167.519 22.7194 164.033 23.1598C161.174 23.5483 158.159 24.2732 158.159 27.2802C158.159 28.3687 158.624 31.0896 163.661 31.0896C165.589 31.0896 167.704 30.5964 168.948 29.3015H169.04L169.445 30.5964H174.42V30.3639C173.521 30.1821 173.456 29.3015 173.488 27.8758L173.581 21.8634C173.612 20.3357 173.456 16.9409 166.335 16.9409C164.627 16.9409 159.121 17.0959 158.904 21.6827H163.413ZM168.885 25.155C168.885 27.7984 166.584 28.4469 165.435 28.4469C164.564 28.4469 163.009 28.1608 163.009 26.9177C163.009 25.4399 164.78 25.155 165.775 25.0253C167.611 24.766 167.455 24.8443 168.885 24.3254V25.155Z" fill="#60B238"/>
<path d="M180.328 30.5963H175.601V17.4323H180.328V22.3823H186.019V17.4323H190.746V30.5963H186.019V25.0253H180.328V30.5963Z" fill="#60B238"/>
<path d="M202.685 17.4323H207.939L201.441 23.5993L208.251 30.5963H202.714L197.616 24.8443H197.524V30.5963H192.799V17.4323H197.524V22.7194H197.616L202.685 17.4323Z" fill="#60B238"/>
<path d="M0.108398 30.6436H11.947V18.805H0.108398V30.6436Z" fill="#373435"/>
<path d="M24.1417 6.62735C24.1417 10.6529 24.1417 20.3618 24.1417 24.3874C23.0173 24.3874 22.8192 24.3874 21.7266 24.3874C20.6838 15.6041 15.1649 10.0868 6.38016 9.04398C6.38016 7.95132 6.38016 7.75403 6.38016 6.62735C10.4061 6.62735 20.1157 6.62735 24.1417 6.62735ZM0.12088 0.368835V15.1041H3.25146C11.4897 15.1041 15.6668 19.2805 15.6668 27.516V30.6466H30.4009V0.368835H0.12088Z" fill="#60B238"/>
</svg>
